<svg width="60" height="76" viewBox="0 0 60 76" fill="none" xmlns="http://www.w3.org/2000/svg">
<path d="M31.0312 64.25C31.7812 64.1875 32.4225 63.89 32.955 63.3575C33.4875 62.825 33.7525 62.185 33.75 61.4375C33.75 60.5625 33.4688 59.8587 32.9062 59.3263C32.3438 58.7938 31.625 58.56 30.75 58.625C28.1875 58.8125 25.4688 58.1087 22.5938 56.5138C19.7188 54.9188 17.9063 52.0288 17.1563 47.8438C17.0313 47.1562 16.7038 46.5938 16.1737 46.1562C15.6438 45.7188 15.0338 45.5 14.3438 45.5C13.4688 45.5 12.75 45.8287 12.1875 46.4862C11.625 47.1437 11.4375 47.9087 11.625 48.7812C12.6875 54.4688 15.1875 58.5312 19.125 60.9688C23.0625 63.4062 27.0312 64.5 31.0312 64.25ZM30 75.5C21.4375 75.5 14.2963 72.5625 8.57625 66.6875C2.85625 60.8125 -0.00249836 53.5 1.63827e-06 44.75C1.63827e-06 38.5 2.485 31.7025 7.455 24.3575C12.425 17.0125 19.94 9.06 30 0.5C40.0625 9.0625 47.5788 17.0162 52.5488 24.3612C57.5188 31.7062 60.0025 38.5025 60 44.75C60 53.5 57.14 60.8125 51.42 66.6875C45.7 72.5625 38.56 75.5 30 75.5Z" fill="white"/>
</svg>
