<svg width="24" height="24" viewBox="0 0 24 24" fill="none" xmlns="http://www.w3.org/2000/svg">
<path d="M21.9375 23.25C19.25 23.25 16.6304 22.6508 14.0788 21.4525C11.5271 20.2542 9.26667 18.6708 7.2975 16.7025C5.32833 14.7342 3.745 12.4738 2.5475 9.92125C1.35 7.36875 0.750833 4.74917 0.75 2.0625C0.75 1.6875 0.875 1.375 1.125 1.125C1.375 0.875 1.6875 0.75 2.0625 0.75H7.125C7.41667 0.75 7.67708 0.84375 7.90625 1.03125C8.13542 1.21875 8.27083 1.45833 8.3125 1.75L9.125 6.125C9.16667 6.41667 9.16125 6.6825 9.10875 6.9225C9.05625 7.1625 8.93667 7.37583 8.75 7.5625L5.75 10.625C6.625 12.125 7.71875 13.5312 9.03125 14.8438C10.3438 16.1562 11.7917 17.2917 13.375 18.25L16.3125 15.3125C16.5 15.125 16.745 14.9846 17.0475 14.8912C17.35 14.7979 17.6467 14.7717 17.9375 14.8125L22.25 15.6875C22.5417 15.75 22.7812 15.8908 22.9688 16.11C23.1562 16.3292 23.25 16.5842 23.25 16.875V21.9375C23.25 22.3125 23.125 22.625 22.875 22.875C22.625 23.125 22.3125 23.25 21.9375 23.25Z" fill="#45C4A0"/>
</svg>
