<svg width="18" height="26" viewBox="0 0 18 26" fill="none" xmlns="http://www.w3.org/2000/svg">
<path d="M1.5 23H16.5C17.1875 23 17.75 23.5625 17.75 24.25C17.75 24.9375 17.1875 25.5 16.5 25.5H1.5C0.8125 25.5 0.25 24.9375 0.25 24.25C0.25 23.5625 0.8125 23 1.5 23ZM9 6.75C7.625 6.75 6.5 7.875 6.5 9.25C6.5 10.625 7.625 11.75 9 11.75C10.375 11.75 11.5 10.625 11.5 9.25C11.5 7.875 10.375 6.75 9 6.75ZM9 0.5C13.0875 0.5 17.75 3.575 17.75 9.4375C17.75 13.1625 15.0875 17.0875 9.7625 21.175C9.3125 21.525 8.6875 21.525 8.2375 21.175C2.9125 17.075 0.25 13.1625 0.25 9.4375C0.25 3.575 4.9125 0.5 9 0.5Z" fill="#45C4A0"/>
</svg>
