<svg width="97" height="71" viewBox="0 0 97 71" fill="none" xmlns="http://www.w3.org/2000/svg">
<path d="M35.375 70.5C25.6042 70.5 17.3281 67.1094 10.5469 60.3281C3.76563 53.5469 0.375 45.2708 0.375 35.5C0.375 25.7292 3.76563 17.4531 10.5469 10.6719C17.3281 3.89062 25.6042 0.5 35.375 0.5H61.625C71.3958 0.5 79.6719 3.89062 86.4531 10.6719C93.2344 17.4531 96.625 25.7292 96.625 35.5C96.625 45.2708 93.2344 53.5469 86.4531 60.3281C79.6719 67.1094 71.3958 70.5 61.625 70.5H35.375ZM48.5 44.25C50.9062 44.25 52.9669 43.3925 54.6819 41.6775C56.3969 39.9625 57.2529 37.9033 57.25 35.5C57.25 33.0938 56.3925 31.0331 54.6775 29.3181C52.9625 27.6031 50.9033 26.7471 48.5 26.75C46.0938 26.75 44.0331 27.6075 42.3181 29.3225C40.6031 31.0375 39.7471 33.0967 39.75 35.5C39.75 37.9062 40.6075 39.9669 42.3225 41.6819C44.0375 43.3969 46.0967 44.2529 48.5 44.25ZM44.125 22.375H52.875C54.1146 22.375 55.1544 21.955 55.9944 21.115C56.8344 20.275 57.2529 19.2367 57.25 18C57.25 16.7604 56.83 15.7206 55.99 14.8806C55.15 14.0406 54.1117 13.6221 52.875 13.625H44.125C42.8854 13.625 41.8456 14.045 41.0056 14.885C40.1656 15.725 39.7471 16.7633 39.75 18C39.75 19.2396 40.17 20.2794 41.01 21.1194C41.85 21.9594 42.8883 22.3779 44.125 22.375ZM44.125 57.375H52.875C54.1146 57.375 55.1544 56.955 55.9944 56.115C56.8344 55.275 57.2529 54.2367 57.25 53C57.25 51.7604 56.83 50.7206 55.99 49.8806C55.15 49.0406 54.1117 48.6221 52.875 48.625H44.125C42.8854 48.625 41.8456 49.045 41.0056 49.885C40.1656 50.725 39.7471 51.7633 39.75 53C39.75 54.2396 40.17 55.2794 41.01 56.1194C41.85 56.9594 42.8883 57.3779 44.125 57.375ZM66 44.25C67.2396 44.25 68.2794 43.83 69.1194 42.99C69.9594 42.15 70.3779 41.1117 70.375 39.875V31.125C70.375 29.8854 69.955 28.8456 69.115 28.0056C68.275 27.1656 67.2367 26.7471 66 26.75C64.7604 26.75 63.7206 27.17 62.8806 28.01C62.0406 28.85 61.6221 29.8883 61.625 31.125V39.875C61.625 41.1146 62.045 42.1544 62.885 42.9944C63.725 43.8344 64.7633 44.2529 66 44.25ZM31 44.25C32.2396 44.25 33.2794 43.83 34.1194 42.99C34.9594 42.15 35.3779 41.1117 35.375 39.875V31.125C35.375 29.8854 34.955 28.8456 34.115 28.0056C33.275 27.1656 32.2367 26.7471 31 26.75C29.7604 26.75 28.7206 27.17 27.8806 28.01C27.0406 28.85 26.6221 29.8883 26.625 31.125V39.875C26.625 41.1146 27.045 42.1544 27.885 42.9944C28.725 43.8344 29.7633 44.2529 31 44.25Z" fill="white"/>
</svg>
