<svg width="91" height="91" viewBox="0 0 91 91" fill="none" xmlns="http://www.w3.org/2000/svg">
<path fill-rule="evenodd" clip-rule="evenodd" d="M39.0625 13.3125C38.2271 13.3121 37.4097 13.5555 36.7106 14.0129C36.0116 14.4703 35.4612 15.1218 35.127 15.8875C34.7889 16.6624 34.3014 17.3632 33.6924 17.9497C33.0835 18.5363 32.3649 18.9971 31.5779 19.306C30.7908 19.6148 29.9506 19.7656 29.1052 19.7498C28.2599 19.7339 27.4259 19.5517 26.651 19.2135C25.8761 18.8754 25.1753 18.3879 24.5888 17.7789C24.0022 17.17 23.5414 16.4514 23.2325 15.6644C22.9237 14.8773 22.7729 14.0371 22.7887 13.1917C22.8046 12.3464 22.9868 11.5124 23.325 10.7375C24.5629 7.90107 26.5446 5.45204 29.0603 3.64957C31.576 1.8471 34.5322 0.758237 37.6161 0.498208C40.7 0.23818 43.7968 0.816656 46.5788 2.17242C49.3608 3.52819 51.7246 5.61082 53.42 8.19992C55.1154 10.789 56.0794 13.7883 56.2099 16.8803C56.3404 19.9724 55.6325 23.0422 54.1613 25.765C52.6901 28.4877 50.5102 30.7621 47.8523 32.3474C45.1944 33.9328 42.1573 34.7701 39.0625 34.7708H15.4583C13.751 34.7708 12.1136 34.0926 10.9063 32.8853C9.69907 31.6781 9.02083 30.0407 9.02083 28.3333C9.02083 26.626 9.69907 24.9886 10.9063 23.7813C12.1136 22.5741 13.751 21.8958 15.4583 21.8958H39.0625C40.2007 21.8958 41.2923 21.4437 42.0972 20.6388C42.902 19.834 43.3542 18.7424 43.3542 17.6042C43.3542 16.466 42.902 15.3744 42.0972 14.5695C41.2923 13.7647 40.2007 13.3125 39.0625 13.3125ZM73.3958 30.4792C72.5604 30.4788 71.743 30.7222 71.044 31.1796C70.3449 31.637 69.7945 32.2885 69.4604 33.0542C68.7774 34.6192 67.5008 35.8489 65.9112 36.4726C64.3216 37.0964 62.5494 37.0631 60.9843 36.3802C59.4193 35.6973 58.1896 34.4206 57.5659 32.831C56.9421 31.2415 56.9754 29.4692 57.6583 27.9042C58.8962 25.0677 60.8779 22.6187 63.3936 20.8162C65.9094 19.0138 68.8656 17.9249 71.9494 17.6649C75.0333 17.4048 78.1301 17.9833 80.9121 19.3391C83.6942 20.6949 86.058 22.7775 87.7534 25.3666C89.4488 27.9557 90.4127 30.955 90.5432 34.047C90.6737 37.1391 89.9659 40.2089 88.4947 42.9316C87.0234 45.6544 84.8435 47.9287 82.1856 49.5141C79.5277 51.0994 76.4906 51.9368 73.3958 51.9375H6.875C5.16767 51.9375 3.53027 51.2593 2.323 50.052C1.11573 48.8447 0.4375 47.2073 0.4375 45.5C0.4375 43.7927 1.11573 42.1553 2.323 40.948C3.53027 39.7407 5.16767 39.0625 6.875 39.0625H73.3958C74.534 39.0625 75.6257 38.6103 76.4305 37.8055C77.2353 37.0007 77.6875 35.9091 77.6875 34.7708C77.6875 33.6326 77.2353 32.541 76.4305 31.7362C75.6257 30.9313 74.534 30.4792 73.3958 30.4792ZM52.2937 75.1125C52.6032 75.8216 53.0985 76.4338 53.7274 76.8844C54.3563 77.335 55.0953 77.6073 55.8662 77.6723C56.6371 77.7374 57.4113 77.5928 58.1068 77.254C58.8023 76.9151 59.3933 76.3945 59.8172 75.7474C60.2411 75.1002 60.4822 74.3504 60.5149 73.5775C60.5476 72.8045 60.3708 72.0371 60.0032 71.3564C59.6355 70.6756 59.0907 70.107 58.4263 69.7105C57.762 69.314 57.0028 69.1045 56.2292 69.1042H28.3333C26.626 69.1042 24.9886 68.4259 23.7813 67.2187C22.5741 66.0114 21.8958 64.374 21.8958 62.6667C21.8958 60.9593 22.5741 59.3219 23.7813 58.1147C24.9886 56.9074 26.626 56.2292 28.3333 56.2292H56.2292C59.3242 56.2291 62.3616 57.0658 65.02 58.6507C67.6784 60.2355 69.8589 62.5096 71.3307 65.2322C72.8026 67.9548 73.5109 71.0247 73.3809 74.117C73.2509 77.2092 72.2873 80.2088 70.5922 82.7983C68.897 85.3878 66.5333 87.4708 63.7512 88.8269C60.9691 90.183 57.8722 90.7617 54.7881 90.5019C51.7041 90.242 48.7476 89.1533 46.2317 87.3508C43.7158 85.5483 41.7339 83.0991 40.4959 80.2625C40.1395 79.485 39.9416 78.6443 39.9137 77.7895C39.8859 76.9347 40.0286 76.0829 40.3336 75.2839C40.6387 74.4848 41.0999 73.7546 41.6903 73.1358C42.2807 72.517 42.9885 72.0221 43.7724 71.6799C44.5562 71.3378 45.4004 71.1552 46.2556 71.143C47.1108 71.1307 47.9598 71.289 48.7531 71.6086C49.5465 71.9281 50.2682 72.4026 50.8761 73.0042C51.484 73.6058 51.9659 74.3225 52.2937 75.1125Z" fill="white"/>
</svg>
